<svg width="20" height="21" viewBox="0 0 20 21" fill="none" xmlns="http://www.w3.org/2000/svg">
<path d="M7.49984 18.8334C6.99984 18.8334 6.6665 18.5 6.6665 18V15.5H3.33317C2.4165 15.5 1.6665 14.75 1.6665 13.8334V3.83335C1.6665 2.91669 2.4165 2.16669 3.33317 2.16669H16.6665C17.5832 2.16669 18.3332 2.91669 18.3332 3.83335V13.8334C18.3332 14.75 17.5832 15.5 16.6665 15.5H11.5832L8.49984 18.5834C8.33317 18.75 8.1665 18.8334 7.9165 18.8334H7.49984ZM8.33317 13.8334V16.4167L10.9165 13.8334H16.6665V3.83335H3.33317V13.8334H8.33317Z" fill="#FF7538"/>
<path fill-rule="evenodd" clip-rule="evenodd" d="M9.75884 6.09369C9.88063 5.91102 10.0456 5.76126 10.2392 5.6577C10.4328 5.55413 10.649 5.49997 10.8685 5.50002H10.9395C11.0363 5.50001 11.132 5.52109 11.2199 5.5618C11.3077 5.60252 11.3857 5.66188 11.4483 5.73577C11.5109 5.80965 11.5566 5.89629 11.5823 5.98964C11.608 6.083 11.6131 6.18084 11.5972 6.27635L11.3932 7.50002H12.1865C12.3345 7.50001 12.4806 7.53283 12.6143 7.59611C12.748 7.65939 12.866 7.75156 12.9599 7.86596C13.0537 7.98037 13.1209 8.11416 13.1568 8.2577C13.1926 8.40124 13.1962 8.55094 13.1672 8.69602L12.7672 10.696C12.7219 10.9227 12.5994 11.1268 12.4206 11.2733C12.2418 11.4199 12.0177 11.5 11.7865 11.5H7.99984C7.73462 11.5 7.48027 11.3947 7.29273 11.2071C7.10519 11.0196 6.99984 10.7652 6.99984 10.5V7.83335C6.99984 7.74495 7.03496 7.66016 7.09747 7.59765C7.15998 7.53514 7.24476 7.50002 7.33317 7.50002H8.64317C8.69803 7.50003 8.75205 7.48649 8.80043 7.46062C8.84881 7.43474 8.89005 7.39733 8.9205 7.35169L9.75884 6.09369ZM8.33317 8.16669H7.6665V10.5C7.6665 10.5884 7.70162 10.6732 7.76413 10.7357C7.82665 10.7982 7.91143 10.8334 7.99984 10.8334H8.33317V8.16669Z" fill="#FF7538"/>
</svg>
