<svg width="18" height="19" viewBox="0 0 18 19" fill="none" xmlns="http://www.w3.org/2000/svg">
<path d="M8.72304 18.5294C13.468 18.5294 17.3154 14.4995 17.3154 9.52942C17.3154 4.55933 13.468 0.529419 8.72304 0.529419C3.97804 0.529419 0.130648 4.55933 0.130648 9.52942C0.130648 14.4995 3.97804 18.5294 8.72304 18.5294ZM5.95928 9.3908L10.1481 6.19862C10.171 6.18133 10.1981 6.17101 10.2263 6.16879C10.2545 6.16657 10.2827 6.17254 10.3079 6.18603C10.3331 6.19953 10.3542 6.22003 10.369 6.24529C10.3838 6.27054 10.3916 6.29958 10.3917 6.3292L10.3917 12.7096C10.3917 12.7392 10.384 12.7684 10.3692 12.7937C10.3545 12.819 10.3333 12.8396 10.3081 12.8531C10.2829 12.8667 10.2546 12.8726 10.2263 12.8703C10.1981 12.868 10.171 12.8576 10.1481 12.8401L5.95928 9.64995C5.93949 9.6353 5.92335 9.61588 5.91221 9.59333C5.90106 9.57078 5.89525 9.54577 5.89525 9.52038C5.89525 9.49499 5.90106 9.46997 5.91221 9.44743C5.92335 9.42488 5.93949 9.40546 5.95928 9.3908Z" fill="white"/>
</svg>
