<svg width="16" height="13" viewBox="0 0 16 13" fill="none" xmlns="http://www.w3.org/2000/svg">
<path d="M14.9975 10.3179C16.0475 11.2175 15.35 12.875 13.94 12.875H7.295C6.79608 12.8769 6.3017 12.7854 5.84037 12.606C5.37905 12.4265 4.9599 12.1626 4.60711 11.8294C4.25431 11.4962 3.97485 11.1003 3.78484 10.6646C3.59482 10.229 3.49802 9.76204 3.5 9.29083V9.25542C1.775 8.9225 0.5 7.49875 0.5 5.79167C0.5 3.84375 2.165 2.25 4.25 2.25H6.125C6.35 2.25 6.5 2.08708 6.5 1.89583C6.5 1.70458 6.35 1.54167 6.125 1.54167H4.25V0.125H6.125C7.16 0.125 8 0.925417 8 1.89583C8 2.88042 7.16 3.66667 6.125 3.66667H4.25C3.005 3.66667 2 4.60875 2 5.79167C2 6.76208 2.69 7.5625 3.605 7.82458C4.025 6.26625 5.5025 5.08333 7.295 5.08333C7.895 5.08333 8.495 5.23917 9.02 5.47292C7.9625 6.0325 7.25 7.06667 7.25 8.27083C7.25 9.15625 7.625 9.94958 8.2475 10.5162L8.7725 10.0204C8.285 9.58833 8 8.95792 8 8.27083C8 6.43625 9.755 5.79167 10.625 5.79167C12.185 5.79167 13.5875 7.13042 13.205 8.78792L14.9975 10.3179ZM12.5 11.4583C12.92 11.4583 13.25 11.1467 13.25 10.75C13.25 10.3533 12.92 10.0417 12.5 10.0417C12.08 10.0417 11.75 10.3533 11.75 10.75C11.75 11.1467 12.08 11.4583 12.5 11.4583Z" fill="#FFFFFF"/>
</svg>
