<svg width="7" height="13" viewBox="0 0 7 13" fill="none" xmlns="http://www.w3.org/2000/svg">
<path d="M1.96275 1.01715C2.38075 1.42515 6.46475 5.71215 6.46475 5.71215C6.5706 5.81429 6.65479 5.9367 6.71229 6.07209C6.7698 6.20747 6.79943 6.35306 6.79943 6.50015C6.79943 6.64724 6.7698 6.79283 6.71229 6.92822C6.65479 7.0636 6.5706 7.18602 6.46475 7.28815C6.46475 7.28815 2.38075 11.5772 1.96275 11.9832C1.54475 12.3912 0.792749 12.4192 0.347749 11.9832C-0.0982512 11.5492 -0.133251 10.9422 0.347749 10.4092L4.09475 6.50115L0.347749 2.59315C-0.133251 2.06015 -0.0982512 1.45215 0.347749 1.01715C0.792749 0.581151 1.54475 0.608151 1.96275 1.01715Z" fill="#F4CF1F"/>
</svg>
