<svg width="17" height="17" viewBox="0 0 17 17" fill="none" xmlns="http://www.w3.org/2000/svg">
<path d="M8.5 0C3.80603 0 0 3.80603 0 8.5C0 13.194 3.80603 17 8.5 17C13.194 17 17 13.194 17 8.5C17 3.80603 13.194 0 8.5 0ZM11.234 8.63092L7.09029 11.6458C7.06757 11.6621 7.0408 11.6718 7.0129 11.6739C6.985 11.676 6.95707 11.6704 6.93217 11.6576C6.90727 11.6449 6.88636 11.6255 6.87175 11.6017C6.85713 11.5778 6.84938 11.5504 6.84933 11.5224V5.49654C6.84924 5.46851 6.85691 5.441 6.8715 5.41706C6.88608 5.39313 6.90701 5.3737 6.93196 5.36093C6.95691 5.34815 6.98491 5.34254 7.01286 5.34471C7.04081 5.34688 7.06761 5.35675 7.09029 5.37321L11.234 8.38616C11.2536 8.40001 11.2696 8.41834 11.2806 8.43964C11.2916 8.46093 11.2974 8.48456 11.2974 8.50854C11.2974 8.53252 11.2916 8.55614 11.2806 8.57744C11.2696 8.59873 11.2536 8.61707 11.234 8.63092Z" fill="white"/>
</svg>
