<svg width="20" height="21" viewBox="0 0 20 21" fill="none" xmlns="http://www.w3.org/2000/svg">
<path d="M13.3332 3C13.9708 2.99996 14.5844 3.2436 15.0484 3.68107C15.5123 4.11854 15.7916 4.71676 15.829 5.35333L15.8332 5.5V13.8333H16.4582C16.9973 13.8333 17.4415 14.2433 17.4948 14.7683L17.4998 14.875V16.3333C17.4999 16.971 17.2562 17.5846 16.8188 18.0485C16.3813 18.5125 15.7831 18.7918 15.1465 18.8292L14.9998 18.8333H6.6665C6.02883 18.8334 5.41524 18.5897 4.95129 18.1523C4.48733 17.7148 4.20808 17.1166 4.17067 16.48L4.1665 16.3333V8H2.70817C2.45029 8.00012 2.20153 7.90457 2.01003 7.73186C1.81853 7.55914 1.69791 7.32153 1.6715 7.065L1.6665 6.95833V5.5C1.66647 4.86232 1.91011 4.24874 2.34757 3.78478C2.78504 3.32083 3.38326 3.04158 4.01984 3.00417L4.1665 3H13.3332ZM13.3332 4.66667H5.83317V16.3333C5.83317 16.5543 5.92097 16.7663 6.07725 16.9226C6.23353 17.0789 6.44549 17.1667 6.6665 17.1667C6.88752 17.1667 7.09948 17.0789 7.25576 16.9226C7.41204 16.7663 7.49984 16.5543 7.49984 16.3333V14.875C7.49984 14.3 7.9665 13.8333 8.5415 13.8333H14.1665V5.5C14.1665 5.27899 14.0787 5.06702 13.9224 4.91074C13.7661 4.75446 13.5542 4.66667 13.3332 4.66667ZM15.8332 15.5H9.1665V16.3333C9.1665 16.625 9.1165 16.9058 9.02484 17.1667H14.9998C15.2209 17.1667 15.4328 17.0789 15.5891 16.9226C15.7454 16.7663 15.8332 16.5543 15.8332 16.3333V15.5ZM9.99984 10.5C10.2209 10.5 10.4328 10.5878 10.5891 10.7441C10.7454 10.9004 10.8332 11.1123 10.8332 11.3333C10.8332 11.5543 10.7454 11.7663 10.5891 11.9226C10.4328 12.0789 10.2209 12.1667 9.99984 12.1667H8.33317C8.11216 12.1667 7.9002 12.0789 7.74392 11.9226C7.58763 11.7663 7.49984 11.5543 7.49984 11.3333C7.49984 11.1123 7.58763 10.9004 7.74392 10.7441C7.9002 10.5878 8.11216 10.5 8.33317 10.5H9.99984ZM11.6665 7.16667C11.8875 7.16667 12.0995 7.25446 12.2558 7.41074C12.412 7.56702 12.4998 7.77899 12.4998 8C12.4998 8.22101 12.412 8.43297 12.2558 8.58926C12.0995 8.74554 11.8875 8.83333 11.6665 8.83333H8.33317C8.11216 8.83333 7.9002 8.74554 7.74392 8.58926C7.58763 8.43297 7.49984 8.22101 7.49984 8C7.49984 7.77899 7.58763 7.56702 7.74392 7.41074C7.9002 7.25446 8.11216 7.16667 8.33317 7.16667H11.6665ZM4.1665 4.66667C3.96239 4.66669 3.76539 4.74163 3.61286 4.87726C3.46033 5.0129 3.36288 5.19979 3.339 5.4025L3.33317 5.5V6.33333H4.1665V4.66667Z" fill="#FF7538"/>
</svg>
